# xmcd
#
# Track frame offsets:
#	150
#	13733
#	27456
#	42459
#	59944
#	73407
#	87661
#	103964
#	116886
#	134442
#	152069
#
# Disc length: 2282 seconds
#
# Revision: 0
# Processed by: cddbd v1.5.2PL0 Copyright (c) Steve Scherf et al.
# Submitted via: dBpowerAMP V4.0
#
DISCID=b208e80b
DTITLE=Fankie Ballard - Sunshine and Whiskey
DYEAR=2014
DGENRE=Country
TTITLE0=Young and Crazy
TTITLE1=Sunshine and Whiskey
TTITLE2=It Don't Take Much
TTITLE3=Helluva Life
TTITLE4=Drinky Drink
TTITLE5=Tell Me You Get Lonely
TTITLE6=Sober Me Up
TTITLE7=I'm Thinking Country
TTITLE8=Tip Jar
TTITLE9=Don't You Wanna Fall
TTITLE10=Don't Tell Mama I Was Drinking
EXTD=
EXTT0=
EXTT1=
EXTT2=
EXTT3=
EXTT4=
EXTT5=
EXTT6=
EXTT7=
EXTT8=
EXTT9=
EXTT10=
PLAYORDER=
